# xmcd
#
# Track frame offsets: 
#        150
#        18598
#        33833
#        47801
#        74850
#        96891
#        127191
#        152110
#        160776
#        185137
#
# Disc length: 2812 seconds
#
# Revision: 0
# Processed by: cddbd v1.5.2PL0 Copyright (c) Steve Scherf et al.
# Submitted via: ExactAudioCopy v1.0b3
#
DISCID=8f0afa0a
DTITLE=Denny Newmann - Sleepwalking With You
DYEAR=2007
DGENRE=Blues
TTITLE0=Livin' For The Past
TTITLE1=Sleepwalking With You
TTITLE2=This World Keep Turning
TTITLE3=Burying Ground
TTITLE4=I'll Get Over You  (when you get over geeting over me)
TTITLE5=The Case Is Closed
TTITLE6=Frenchman
TTITLE7=Potato Boat Blues
TTITLE8=When The Sun Don't Shine
TTITLE9=Goin' Down
EXTD=
EXTT0=
EXTT1=
EXTT2=
EXTT3=
EXTT4=
EXTT5=
EXTT6=
EXTT7=
EXTT8=
EXTT9=
PLAYORDER=
